<svg xmlns="http://www.w3.org/2000/svg" viewBox="0 0 64 64" role="img" aria-label="Veo">
  <defs>
    <linearGradient id="veo" x1="0" y1="0" x2="1" y2="1">
      <stop offset="0" stop-color="#7A5CFF"/>
      <stop offset="0.55" stop-color="#5B6BFF"/>
      <stop offset="1" stop-color="#2FB0FF"/>
    </linearGradient>
  </defs>
  <rect width="64" height="64" rx="15" fill="url(#veo)"/>
  <path fill="#fff" d="M32 12c-10.5 0-19 6.6-19 14.8 0 4.6 2.7 8.7 6.9 11.4V46a1.6 1.6 0 0 0 2.5 1.3l6.2-4.2c1.1.1 2.2.2 3.4.2 10.5 0 19-6.6 19-14.8S42.5 12 32 12Z" opacity=".22"/>
  <path fill="#fff" d="M22.6 19.2h5.1l4.3 12.9 4.3-12.9h5.1l-7 18.6h-4.8l-7-18.6Z"/>
</svg>
